{
.appVersion = "3151";
.formatVersion = 3;
date = "2023-02-03 05:05:46 +0000";
familyName = "AlphabetMagic - Experiment 13b";
fontMaster = (
{
customParameters = (
{
name = paramArea;
value = 305;
},
{
name = paramDepth;
value = 17;
}
);
id = m01;
metricValues = (
{
over = 16;
pos = 800;
},
{
over = 16;
pos = 620;
},
{
over = 16;
pos = 405;
},
{
over = -16;
},
{
over = -16;
pos = -275;
},
{
over = -16;
}
);
name = Regular;
userData = {
HTLSManagerMasterRules = {
};
};
}
);
glyphs = (
{
glyphname = A;
lastChange = "2023-02-03 06:09:50 +0000";
layers = (
{
layerId = m01;
shapes = (
{
closed = 1;
nodes = (
(356,325,o),
(392,411,o),
(435,498,c),
(471,411,o),
(507,332,o),
(536,253,c),
(464,239,o),
(392,239,o),
(320,246,c)
);
},
{
closed = 1;
nodes = (
(435,613,o),
(426,579,o),
(411,546,c),
(368,445,o),
(320,347,o),
(265,253,c),
(250,255,o),
(236,258,o),
(224,260,c),
(217,248,o),
(210,236,o),
(202,224,c),
(210,212,o),
(229,205,o),
(219,191,c),
(193,145,o),
(157,104,o),
(123,61,c),
(97,30,o),
(61,11,o),
(20,-1,c),
(20,-6,o),
(22,-16,o),
(22,-23,c),
(126,-9,o),
(231,-9,o),
(334,11,c),
(334,20,o),
(334,30,o),
(334,39,c),
(306,39,o),
(277,35,o),
(250,39,c),
(234,44,o),
(224,63,o),
(231,78,c),
(248,119,o),
(272,157,o),
(294,195,c),
(315,198,o),
(334,193,o),
(354,193,c),
(421,191,o),
(488,195,o),
(550,215,c),
(582,150,o),
(618,90,o),
(644,23,c),
(625,15,o),
(606,8,o),
(586,3,c),
(586,-6,o),
(584,-13,o),
(584,-21,c),
(687,-13,o),
(793,-13,o),
(894,6,c),
(894,15,o),
(894,25,o),
(894,35,c),
(867,35,o),
(836,27,o),
(812,42,c),
(790,51,o),
(774,68,o),
(759,87,c),
(721,138,o),
(692,195,o),
(666,253,c),
(618,351,o),
(574,455,o),
(531,555,c),
(514,591,o),
(502,635,o),
(478,668,c),
(466,666,o),
(450,661,o),
(445,647,c)
);
}
);
width = 917;
}
);
unicode = 65;
},
{
glyphname = B;
lastChange = "2023-02-03 05:31:44 +0000";
layers = (
{
layerId = m01;
shapes = (
{
closed = 1;
nodes = (
(239,51,o),
(255,37,o),
(277,35,cs),
(330,32,o),
(390,37,o),
(433,73,cs),
(469,107,o),
(476,162,o),
(469,207,cs),
(462,246,o),
(443,287,o),
(404,306,cs),
(354,327,o),
(296,318,o),
(241,313,c),
(239,75,ls)
);
},
{
closed = 1;
nodes = (
(155,630,o),
(263,642,o),
(373,647,c),
(428,647,o),
(486,637,o),
(527,603,c),
(575,560,o),
(570,483,o),
(539,431,c),
(519,402,o),
(488,387,o),
(462,366,c),
(503,356,o),
(546,347,o),
(575,313,c),
(615,267,o),
(613,198,o),
(594,143,c),
(570,73,o),
(500,32,o),
(435,8,c),
(375,-16,o),
(311,-9,o),
(248,-11,c),
(174,-13,o),
(99,-21,o),
(25,-25,c),
(20,-4,o),
(42,3,o),
(59,6,c),
(80,15,o),
(114,23,o),
(114,51,c),
(128,157,o),
(121,260,o),
(121,363,c),
(121,431,o),
(123,495,o),
(119,560,c),
(116,596,o),
(71,589,o),
(44,599,c),
(44,608,o),
(44,618,o),
(44,627,c)
);
},
{
closed = 1;
nodes = (
(241,505,o),
(243,431,o),
(241,356,c),
(275,356,o),
(308,359,o),
(342,361,c),
(387,366,o),
(428,397,o),
(438,440,c),
(447,483,o),
(445,539,o),
(411,570,c),
(373,601,o),
(323,603,o),
(275,601,c),
(263,599,o),
(243,596,o),
(246,579,c)
);
}
);
width = 646;
}
);
unicode = 66;
},
{
glyphname = D;
lastChange = "2023-02-03 05:31:44 +0000";
layers = (
{
layerId = m01;
shapes = (
{
closed = 1;
nodes = (
(260,131,o),
(255,109,o),
(260,85,cs),
(267,66,o),
(291,63,o),
(310,59,c),
(375,49,o),
(445,51,o),
(507,78,cs),
(569,107,o),
(613,164,o),
(634,229,cs),
(658,308,o),
(653,399,o),
(615,476,c),
(591,531,o),
(541,572,o),
(483,591,cs),
(418,613,o),
(349,618,o),
(281,606,c),
(257,603,o),
(260,577,o),
(260,563,cs),
(257,155,ls)
);
},
{
closed = 1;
nodes = (
(365,661,o),
(488,680,o),
(601,637,c),
(689,608,o),
(757,529,o),
(773,440,c),
(788,349,o),
(773,253,o),
(725,176,c),
(687,114,o),
(625,73,o),
(560,39,c),
(478,-1,o),
(382,-6,o),
(291,-9,c),
(205,-11,o),
(116,-18,o),
(27,-21,c),
(27,-13,o),
(27,-6,o),
(27,1,c),
(63,11,o),
(116,15,o),
(128,59,c),
(140,123,o),
(137,193,o),
(140,258,c),
(140,354,o),
(140,447,o),
(137,541,c),
(135,555,o),
(137,575,o),
(125,584,c),
(97,596,o),
(65,594,o),
(37,599,c),
(34,608,o),
(34,618,o),
(32,627,c),
(104,632,o),
(176,635,o),
(248,647,c)
);
}
);
width = 822;
}
);
unicode = 68;
},
{
glyphname = E;
lastChange = "2023-02-03 06:09:19 +0000";
layers = (
{
layerId = m01;
shapes = (
{
closed = 1;
nodes = (
(148,-16,o),
(271,-4,o),
(393,-9,cs),
(431,-9,o),
(470,-18,o),
(506,-33,c),
(527,15,o),
(559,61,o),
(597,97,cs),
(611,107,o),
(611,135,o),
(592,135,c),
(549,97,o),
(508,47,o),
(446,47,cs),
(391,47,o),
(333,39,o),
(275,42,cs),
(259,42,o),
(254,61,o),
(254,75,cs),
(256,152,o),
(256,229,o),
(256,306,c),
(323,306,o),
(393,311,o),
(463,299,c),
(479,272,o),
(479,239,o),
(487,210,c),
(513,207,l),
(513,255,o),
(508,308,o),
(532,351,cs),
(542,371,o),
(559,387,o),
(556,409,c),
(518,404,o),
(496,356,o),
(455,356,cs),
(388,351,o),
(323,349,o),
(256,349,c),
(256,428,o),
(254,510,o),
(261,589,c),
(319,596,o),
(379,594,o),
(436,599,cs),
(458,596,o),
(482,603,o),
(501,594,cs),
(527,567,o),
(527,527,o),
(535,493,c),
(559,493,l),
(559,548,o),
(566,601,o),
(580,654,c),
(400,647,o),
(223,630,o),
(45,627,c),
(45,601,l),
(69,594,o),
(95,591,o),
(119,582,c),
(131,577,o),
(131,560,o),
(131,548,cs),
(136,452,o),
(134,356,o),
(134,258,cs),
(134,193,o),
(136,128,o),
(129,63,cs),
(127,51,o),
(127,37,o),
(117,30,c),
(91,11,o),
(55,13,o),
(28,-4,c),
(26,-23,l)
);
}
);
width = 638;
}
);
unicode = 69;
},
{
glyphname = F;
lastChange = "2023-02-03 05:31:44 +0000";
layers = (
{
layerId = m01;
shapes = (
{
closed = 1;
nodes = (
(79,-21,o),
(137,-13,o),
(192,-11,cs),
(257,-4,o),
(324,-1,o),
(389,13,c),
(389,44,l),
(350,42,o),
(312,32,o),
(276,44,cs),
(257,47,o),
(247,66,o),
(247,85,cs),
(245,159,o),
(247,234,o),
(247,311,c),
(307,311,o),
(382,312,o),
(442,307,c),
(466,285,o),
(466,247,o),
(476,218,c),
(502,215,l),
(502,254,o),
(500,295,o),
(507,333,cs),
(512,359,o),
(533,383,o),
(531,412,c),
(495,400,o),
(471,364,o),
(430,364,c),
(372,364,o),
(304,351,o),
(245,356,c),
(245,433,o),
(245,510,o),
(249,587,c),
(307,599,o),
(369,591,o),
(427,596,cs),
(451,596,o),
(477,601,o),
(499,589,c),
(521,563,o),
(525,527,o),
(533,495,c),
(557,495,l),
(554,548,o),
(561,601,o),
(573,654,c),
(540,654,ls),
(379,654,o),
(211,635,o),
(45,630,c),
(48,601,l),
(72,594,o),
(96,591,o),
(115,579,c),
(127,555,o),
(122,529,o),
(122,505,cs),
(122,378,o),
(127,251,o),
(122,123,cs),
(120,95,o),
(122,63,o),
(108,37,cs),
(89,15,o),
(57,11,o),
(29,1,c),
(24,-21,l)
);
}
);
width = 606;
}
);
unicode = 70;
},
{
glyphname = G;
lastChange = "2023-02-03 06:09:10 +0000";
layers = (
{
layerId = m01;
shapes = (
{
closed = 1;
nodes = (
(36,291,o),
(48,195,o),
(99,119,cs),
(163,20,o),
(283,-37,o),
(401,-35,cs),
(514,-33,o),
(624,-13,o),
(732,20,c),
(727,27,o),
(725,37,o),
(720,44,c),
(703,47,o),
(687,49,o),
(672,49,c),
(670,97,o),
(675,145,o),
(679,193,cs),
(687,231,o),
(732,234,o),
(761,243,c),
(778,243,o),
(775,260,o),
(778,272,c),
(703,265,o),
(629,260,o),
(555,260,cs),
(502,260,o),
(447,267,o),
(391,263,c),
(391,236,l),
(435,229,o),
(480,227,o),
(523,212,c),
(550,203,o),
(552,171,o),
(552,147,cs),
(552,109,o),
(557,71,o),
(538,37,cs),
(526,25,o),
(509,25,o),
(492,23,cs),
(401,15,o),
(307,54,o),
(250,123,cs),
(197,188,o),
(173,275,o),
(175,356,cs),
(173,440,o),
(207,531,o),
(276,579,cs),
(334,618,o),
(403,620,o),
(468,613,cs),
(507,608,o),
(550,601,o),
(581,572,cs),
(603,551,o),
(603,519,o),
(607,491,c),
(636,488,l),
(643,539,o),
(643,587,o),
(660,632,c),
(667,644,o),
(660,654,o),
(648,656,cs),
(490,692,o),
(317,671,o),
(178,589,cs),
(103,543,o),
(58,464,o),
(48,380,cs)
);
}
);
width = 802;
}
);
unicode = 71;
},
{
glyphname = H;
lastChange = "2023-02-03 05:31:44 +0000";
layers = (
{
layerId = m01;
shapes = (
{
closed = 1;
nodes = (
(139,-8,o),
(252,-3,o),
(365,9,c),
(362,42,l),
(329,40,o),
(293,33,o),
(261,50,cs),
(245,57,o),
(249,76,o),
(247,90,c),
(247,162,o),
(247,237,o),
(247,309,c),
(499,311,ls),
(547,309,o),
(600,314,o),
(650,306,c),
(653,225,o),
(655,141,o),
(645,59,c),
(629,23,o),
(583,21,o),
(552,9,c),
(554,-15,l),
(667,-6,o),
(782,-1,o),
(895,14,c),
(895,42,l),
(866,42,o),
(837,38,o),
(809,42,cs),
(789,47,o),
(777,71,o),
(777,88,cs),
(777,275,ls),
(777,381,o),
(773,479,o),
(782,582,c),
(818,604,o),
(864,602,o),
(905,616,c),
(905,621,o),
(902,635,o),
(902,642,c),
(789,626,o),
(674,630,o),
(561,628,c),
(561,597,l),
(590,592,o),
(621,592,o),
(648,578,c),
(653,558,o),
(653,539,o),
(653,520,cs),
(653,465,o),
(655,410,o),
(653,354,c),
(477,350,ls),
(403,352,o),
(324,347,o),
(247,352,c),
(247,429,o),
(247,506,o),
(252,582,c),
(293,597,o),
(333,604,o),
(374,611,c),
(374,638,l),
(261,626,o),
(151,626,o),
(38,628,c),
(38,616,o),
(38,606,o),
(41,597,c),
(67,590,o),
(96,590,o),
(122,580,c),
(129,503,o),
(122,426,o),
(127,352,cs),
(127,261,o),
(129,170,o),
(125,78,cs),
(122,62,o),
(120,45,o),
(105,35,cs),
(81,18,o),
(55,14,o),
(29,4,c),
(26,-18,l)
);
}
);
width = 933;
}
);
unicode = 72;
},
{
glyphname = I;
lastChange = "2023-02-03 05:31:44 +0000";
layers = (
{
layerId = m01;
shapes = (
{
closed = 1;
nodes = (
(27,-3,o),
(30,-13,o),
(30,-20,c),
(145,-8,o),
(260,-3,o),
(375,11,c),
(373,42,l),
(342,42,o),
(311,35,o),
(282,42,cs),
(255,52,o),
(258,83,o),
(255,105,c),
(255,237,o),
(260,366,o),
(258,498,cs),
(263,580,l),
(301,602,o),
(347,602,o),
(387,614,c),
(390,640,l),
(272,623,o),
(157,626,o),
(42,626,c),
(42,597,l),
(66,592,o),
(92,592,o),
(116,582,cs),
(133,575,o),
(131,551,o),
(133,534,cs),
(135,424,o),
(133,314,o),
(135,203,cs),
(135,160,o),
(135,114,o),
(131,69,cs),
(128,57,o),
(128,38,o),
(114,33,cs),
(85,18,o),
(56,11,o),
(25,2,c)
);
}
);
width = 416;
}
);
unicode = 73;
},
{
glyphname = M;
lastChange = "2023-02-03 05:31:44 +0000";
layers = (
{
layerId = m01;
shapes = (
{
closed = 1;
nodes = (
(533,9,o),
(553,47,o),
(572,86,cs),
(634,208,o),
(711,323,o),
(785,441,c),
(797,333,o),
(797,222,o),
(797,112,cs),
(797,88,o),
(802,57,o),
(781,38,c),
(754,18,o),
(723,11,o),
(692,2,c),
(697,-20,l),
(817,-3,o),
(939,-3,o),
(1061,11,c),
(1059,38,l),
(1023,45,o),
(980,30,o),
(949,52,cs),
(925,74,o),
(927,107,o),
(922,136,cs),
(910,256,o),
(910,378,o),
(910,498,cs),
(913,527,o),
(908,554,o),
(920,580,c),
(951,602,o),
(994,602,o),
(1030,614,c),
(1035,638,l),
(961,633,o),
(886,628,o),
(812,626,c),
(781,532,o),
(728,448,o),
(680,364,cs),
(637,292,o),
(593,220,o),
(545,155,c),
(500,232,ls),
(421,359,o),
(358,491,o),
(296,628,c),
(226,621,o),
(154,626,o),
(85,626,c),
(85,597,l),
(113,592,o),
(145,592,o),
(169,575,cs),
(193,558,o),
(190,525,o),
(190,498,cs),
(185,362,o),
(166,225,o),
(133,93,cs),
(123,40,o),
(68,21,o),
(22,9,c),
(22,2,o),
(25,-10,o),
(25,-15,c),
(353,9,l),
(351,18,o),
(349,30,o),
(349,40,c),
(313,35,o),
(274,33,o),
(241,47,cs),
(219,57,o),
(217,81,o),
(214,100,c),
(212,153,o),
(217,208,o),
(219,263,cs),
(226,330,o),
(231,400,o),
(248,467,c),
(358,244,ls),
(399,155,o),
(449,66,o),
(478,-27,c),
(514,-30,l)
);
}
);
width = 1087;
}
);
unicode = 77;
},
{
glyphname = N;
lastChange = "2023-02-03 05:31:44 +0000";
layers = (
{
layerId = m01;
shapes = (
{
closed = 1;
nodes = (
(29,604,l),
(72,597,o),
(115,590,o),
(151,561,c),
(151,525,ls),
(151,402,o),
(151,280,o),
(151,165,c),
(144,122,o),
(144,78,o),
(123,50,cs),
(101,21,o),
(65,14,o),
(29,6,c),
(29,-1,o),
(29,-8,o),
(29,-15,c),
(353,6,ls),
(367,6,o),
(360,28,o),
(360,42,c),
(324,42,o),
(288,35,o),
(252,50,cs),
(231,64,o),
(223,93,o),
(223,114,cs),
(216,194,o),
(216,280,o),
(216,359,cs),
(216,482,l),
(288,431,o),
(346,366,o),
(411,309,cs),
(519,201,o),
(627,86,o),
(735,-30,c),
(742,-44,o),
(763,-51,o),
(778,-44,c),
(771,136,o),
(771,323,o),
(785,503,cs),
(785,525,o),
(785,554,o),
(799,575,c),
(835,604,o),
(879,604,o),
(922,611,c),
(922,640,l),
(807,626,o),
(699,626,o),
(583,626,c),
(583,618,o),
(583,611,o),
(591,597,c),
(619,597,o),
(648,590,o),
(677,582,cs),
(699,575,o),
(706,554,o),
(706,539,cs),
(713,474,o),
(713,417,o),
(713,352,cs),
(713,294,o),
(720,244,o),
(713,186,c),
(605,280,ls),
(502,369,o),
(403,467,o),
(303,568,c),
(274,582,o),
(252,604,o),
(238,633,c),
(166,626,o),
(101,633,o),
(29,626,c)
);
}
);
width = 943;
}
);
unicode = 78;
},
{
glyphname = O;
lastChange = "2023-02-03 06:07:22 +0000";
layers = (
{
layerId = m01;
shapes = (
{
closed = 1;
nodes = (
(189,220,o),
(223,153,o),
(271,100,cs),
(321,50,o),
(395,28,o),
(465,40,cs),
(523,52,o),
(566,98,o),
(590,150,cs),
(633,225,o),
(638,316,o),
(621,400,cs),
(607,462,o),
(578,525,o),
(525,563,cs),
(475,604,o),
(405,618,o),
(343,606,cs),
(297,602,o),
(256,575,o),
(232,537,cs),
(182,467,o),
(170,374,o),
(182,290,cs)
);
},
{
closed = 1;
nodes = (
(463,669,o),
(539,659,o),
(604,630,c),
(681,599,o),
(739,527,o),
(760,448,c),
(779,359,o),
(772,263,o),
(727,184,c),
(683,102,o),
(609,47,o),
(525,11,c),
(455,-22,o),
(374,-42,o),
(297,-22,c),
(196,-8,o),
(110,69,o),
(71,160,c),
(33,261,o),
(33,378,o),
(83,474,c),
(146,585,o),
(271,645,o),
(393,659,cs)
);
}
);
width = 813;
}
);
unicode = 79;
},
{
glyphname = S;
lastChange = "2023-02-03 05:31:44 +0000";
layers = (
{
layerId = m01;
shapes = (
{
closed = 1;
nodes = (
(55,95,o),
(60,40,o),
(55,-15,c),
(103,-27,o),
(149,-34,o),
(197,-32,cs),
(290,-37,o),
(389,-17,o),
(461,45,cs),
(535,100,o),
(545,225,o),
(475,290,cs),
(398,357,o),
(290,364,o),
(204,412,cs),
(173,429,o),
(151,467,o),
(161,503,c),
(173,551,o),
(218,585,o),
(269,590,cs),
(302,592,o),
(338,592,o),
(372,580,cs),
(410,561,o),
(429,518,o),
(439,477,c),
(465,475,l),
(468,527,o),
(473,583,o),
(477,635,c),
(398,650,o),
(314,647,o),
(235,628,cs),
(177,614,o),
(117,592,o),
(84,542,cs),
(38,477,o),
(45,374,o),
(113,328,cs),
(192,268,o),
(297,256,o),
(377,199,cs),
(403,179,o),
(420,146,o),
(413,115,cs),
(405,74,o),
(367,45,o),
(329,38,cs),
(271,26,o),
(209,31,o),
(156,55,cs),
(115,71,o),
(96,110,o),
(77,146,c),
(69,146,o),
(60,151,o),
(55,151,c)
);
}
);
width = 560;
}
);
unicode = 83;
},
{
glyphname = V;
lastChange = "2023-02-03 06:09:15 +0000";
layers = (
{
layerId = m01;
shapes = (
{
closed = 1;
nodes = (
(24,599,l),
(62,592,o),
(105,585,o),
(129,551,cs),
(189,465,o),
(228,367,o),
(269,268,cs),
(312,153,o),
(362,40,o),
(393,-77,c),
(408,-77,o),
(422,-75,o),
(437,-75,c),
(461,-25,o),
(482,23,o),
(504,76,cs),
(617,302,ls),
(657,398,o),
(717,487,o),
(792,561,cs),
(825,592,o),
(871,602,o),
(912,614,c),
(914,621,o),
(914,628,o),
(914,638,c),
(806,623,o),
(696,628,o),
(588,628,c),
(588,604,l),
(614,597,o),
(648,597,o),
(672,580,cs),
(689,559,o),
(672,530,o),
(665,508,c),
(463,117,l),
(427,170,o),
(408,232,o),
(381,292,cs),
(353,359,o),
(319,427,o),
(300,496,cs),
(278,568,l),
(276,583,o),
(290,590,o),
(302,595,c),
(331,607,o),
(365,609,o),
(398,616,c),
(401,640,l),
(273,623,o),
(146,628,o),
(21,623,c)
);
}
);
width = 934;
}
);
unicode = 86;
},
{
glyphname = Y;
lastChange = "2023-02-03 05:31:44 +0000";
layers = (
{
layerId = m01;
shapes = (
{
closed = 1;
nodes = (
(52,597,o),
(83,595,o),
(110,578,cs),
(155,554,o),
(189,515,o),
(220,477,cs),
(268,422,o),
(309,364,o),
(350,304,cs),
(364,283,o),
(383,259,o),
(381,230,c),
(381,172,o),
(386,112,o),
(374,55,cs),
(359,19,o),
(316,7,o),
(285,-5,c),
(282,-27,l),
(357,-22,o),
(431,-8,o),
(503,2,cs),
(542,7,o),
(580,14,o),
(618,21,c),
(618,50,l),
(587,50,o),
(551,38,o),
(520,52,cs),
(503,69,o),
(506,95,o),
(503,117,c),
(506,167,o),
(498,218,o),
(506,268,cs),
(525,319,o),
(563,357,o),
(594,403,cs),
(640,458,o),
(683,518,o),
(741,566,cs),
(772,595,o),
(815,602,o),
(856,611,c),
(856,619,o),
(858,628,o),
(858,635,c),
(748,623,o),
(638,626,o),
(527,628,c),
(527,602,l),
(551,597,o),
(578,592,o),
(602,585,c),
(614,583,o),
(626,573,o),
(623,559,cs),
(623,539,o),
(611,523,o),
(604,506,c),
(566,441,o),
(518,381,o),
(474,319,c),
(431,371,o),
(398,434,o),
(357,489,cs),
(338,520,o),
(309,549,o),
(302,587,c),
(330,604,o),
(364,607,o),
(398,611,c),
(398,635,l),
(273,623,o),
(146,631,o),
(21,628,c),
(21,604,l)
);
}
);
width = 878;
}
);
unicode = 89;
},
{
glyphname = a;
kernLeft = a;
kernRight = a;
lastChange = "2023-02-03 06:04:44 +0000";
layers = (
{
layerId = m01;
shapes = (
{
closed = 1;
nodes = (
(170,43,o),
(225,47,o),
(251,79,cs),
(261,112,o),
(258,146,o),
(261,179,c),
(220,170,o),
(174,160,o),
(141,131,cs),
(124,119,o),
(129,91,o),
(141,76,cs)
);
},
{
closed = 1;
nodes = (
(177,405,o),
(213,427,o),
(249,427,c),
(278,427,o),
(314,427,o),
(342,398,c),
(364,376,o),
(378,340,o),
(378,311,c),
(371,247,o),
(364,182,o),
(371,117,c),
(371,95,o),
(378,74,o),
(400,74,c),
(429,74,o),
(458,88,o),
(486,88,c),
(479,81,o),
(486,67,o),
(479,59,c),
(443,38,o),
(414,23,o),
(378,2,c),
(364,-13,o),
(342,-34,o),
(321,-27,c),
(285,-13,o),
(278,16,o),
(263,45,c),
(220,16,o),
(170,-20,o),
(112,-20,c),
(54,-13,o),
(18,59,o),
(40,110,c),
(54,131,o),
(69,146,o),
(90,160,c),
(141,189,o),
(198,211,o),
(263,225,c),
(263,261,o),
(270,297,o),
(249,326,c),
(234,347,o),
(206,355,o),
(184,355,c),
(141,347,o),
(105,326,o),
(62,326,c),
(62,333,o),
(69,340,o),
(69,347,c),
(90,369,o),
(119,383,o),
(148,391,c)
);
}
);
width = 507;
}
);
unicode = 97;
},
{
glyphname = d;
lastChange = "2023-02-03 06:04:49 +0000";
layers = (
{
layerId = m01;
shapes = (
{
closed = 1;
nodes = (
(123,256,o),
(127,165,o),
(164,112,cs),
(183,85,o),
(209,66,o),
(240,59,c),
(284,47,o),
(327,73,o),
(360,97,c),
(365,109,o),
(363,124,o),
(365,136,cs),
(363,200,o),
(372,276,o),
(358,331,c),
(324,376,o),
(257,386,o),
(207,369,cs),
(180,360,o),
(156,338,o),
(147,312,c)
);
},
{
closed = 1;
nodes = (
(471,746,o),
(492,772,o),
(524,777,c),
(521,744,o),
(507,710,o),
(500,676,c),
(488,612,o),
(488,544,o),
(485,480,c),
(480,364,o),
(478,249,o),
(480,107,c),
(478,90,o),
(488,71,o),
(507,69,c),
(531,66,o),
(555,71,o),
(579,73,c),
(579,66,o),
(581,57,o),
(581,47,c),
(528,28,o),
(476,11,o),
(428,-18,c),
(408,-30,o),
(382,-39,o),
(363,-20,c),
(356,4,o),
(358,30,o),
(358,54,c),
(317,30,o),
(279,4,o),
(238,-18,c),
(197,-39,o),
(147,-23,o),
(108,-1,c),
(15,59,o),
(-7,215,o),
(56,309,c),
(113,379,o),
(200,410,o),
(281,432,c),
(312,441,o),
(341,432,o),
(370,424,c),
(370,480,o),
(370,535,o),
(365,590,c),
(351,597,o),
(336,602,o),
(324,612,c),
(365,650,o),
(411,684,o),
(449,724,c)
);
}
);
width = 602;
}
);
unicode = 100;
},
{
glyphname = e;
lastChange = "2023-02-03 06:03:34 +0000";
layers = (
{
layerId = m01;
shapes = (
{
closed = 1;
nodes = (
(216,263,o),
(274,277,o),
(332,299,c),
(322,320,o),
(312,344,o),
(293,359,cs),
(262,383,o),
(216,376,o),
(192,349,cs),
(171,323,o),
(156,292,o),
(156,260,c)
);
},
{
closed = 1;
nodes = (
(317,440,o),
(365,424,o),
(394,392,c),
(411,376,o),
(418,354,o),
(425,332,c),
(437,332,o),
(447,330,o),
(459,330,c),
(459,323,o),
(459,316,o),
(461,308,c),
(365,251,o),
(257,227,o),
(147,215,c),
(149,184,o),
(149,150,o),
(168,124,c),
(202,73,o),
(269,49,o),
(329,56,c),
(375,66,o),
(411,97,o),
(449,121,c),
(454,112,o),
(464,95,o),
(452,85,c),
(396,30,o),
(327,-13,o),
(250,-25,c),
(209,-32,o),
(166,-28,o),
(130,-6,c),
(75,25,o),
(46,88,o),
(41,150,c),
(39,205,o),
(48,265,o),
(87,308,c),
(135,368,o),
(202,407,o),
(274,428,cs)
);
}
);
width = 493;
}
);
unicode = 101;
},
{
glyphname = f;
kernRight = f;
lastChange = "2023-02-03 06:04:55 +0000";
layers = (
{
layerId = m01;
shapes = (
{
closed = 1;
nodes = (
(19,-20,l),
(125,-13,o),
(230,-8,o),
(333,16,c),
(333,47,l),
(302,42,o),
(269,32,o),
(237,42,cs),
(216,47,o),
(213,76,o),
(213,90,cs),
(213,347,l),
(252,349,o),
(295,356,o),
(324,380,c),
(333,390,o),
(350,402,o),
(338,414,c),
(297,421,o),
(257,407,o),
(216,407,c),
(218,450,o),
(221,493,o),
(225,536,cs),
(230,560,o),
(230,589,o),
(245,608,cs),
(273,647,o),
(326,666,o),
(372,656,c),
(386,652,o),
(405,644,o),
(408,628,cs),
(405,608,o),
(401,592,o),
(410,572,c),
(420,575,o),
(429,575,o),
(439,577,cs),
(492,587,o),
(513,664,o),
(473,700,cs),
(441,726,o),
(396,724,o),
(360,714,cs),
(271,690,o),
(187,640,o),
(139,560,cs),
(115,517,o),
(115,467,o),
(105,419,c),
(84,392,o),
(48,378,o),
(26,354,c),
(41,330,o),
(77,347,o),
(98,330,c),
(101,292,ls),
(98,220,o),
(103,140,o),
(96,66,cs),
(96,54,o),
(96,40,o),
(86,30,c),
(67,13,o),
(41,8,o),
(17,1,c)
);
}
);
width = 512;
}
);
unicode = 102;
},
{
glyphname = g;
kernLeft = g;
kernRight = g;
lastChange = "2023-02-03 06:05:00 +0000";
layers = (
{
layerId = m01;
shapes = (
{
closed = 1;
nodes = (
(125,-241,o),
(159,-275,o),
(195,-282,c),
(255,-292,o),
(322,-287,o),
(375,-253,cs),
(399,-236,o),
(418,-210,o),
(416,-181,cs),
(413,-152,o),
(389,-133,o),
(365,-124,cs),
(322,-109,o),
(274,-102,o),
(229,-90,c),
(197,-126,o),
(149,-155,o),
(135,-203,cs)
);
},
{
closed = 1;
nodes = (
(250,414,o),
(293,433,o),
(339,438,c),
(370,440,o),
(392,412,o),
(423,407,c),
(454,404,o),
(485,409,o),
(517,404,c),
(512,385,o),
(507,366,o),
(500,347,c),
(481,347,o),
(464,347,o),
(447,344,c),
(452,292,o),
(457,232,o),
(423,186,c),
(382,124,o),
(308,107,o),
(245,73,c),
(226,66,o),
(217,44,o),
(229,28,c),
(243,11,o),
(267,6,o),
(289,1,c),
(346,-8,o),
(406,-8,o),
(459,-37,c),
(490,-54,o),
(514,-88,o),
(514,-124,c),
(517,-174,o),
(488,-220,o),
(449,-251,c),
(377,-306,o),
(291,-349,o),
(197,-354,c),
(147,-352,o),
(97,-340,o),
(56,-308,c),
(34,-289,o),
(20,-260,o),
(25,-232,c),
(27,-203,o),
(49,-184,o),
(70,-164,c),
(104,-133,o),
(147,-114,o),
(183,-83,c),
(157,-64,o),
(116,-54,o),
(109,-16,c),
(99,25,o),
(140,52,o),
(164,78,c),
(121,100,o),
(80,133,o),
(65,179,c),
(51,227,o),
(58,282,o),
(89,320,c),
(121,356,o),
(164,383,o),
(207,400,cs)
);
},
{
closed = 1;
nodes = (
(197,354,o),
(171,325,o),
(169,292,c),
(161,244,o),
(171,186,o),
(212,157,c),
(236,138,o),
(274,121,o),
(301,145,c),
(358,196,o),
(358,292,o),
(310,347,c),
(289,368,o),
(255,373,o),
(229,366,c)
);
}
);
width = 546;
}
);
unicode = 103;
},
{
glyphname = h;
kernLeft = h;
lastChange = "2023-02-03 06:05:02 +0000";
layers = (
{
layerId = m01;
shapes = (
{
closed = 1;
nodes = (
(109,-11,o),
(205,-8,o),
(296,13,c),
(298,23,o),
(298,32,o),
(296,42,c),
(274,42,o),
(253,37,o),
(231,40,c),
(219,44,o),
(219,61,o),
(219,73,cs),
(219,148,o),
(222,227,o),
(219,299,cs),
(224,330,l),
(267,349,o),
(313,359,o),
(361,349,cs),
(394,342,o),
(418,308,o),
(426,275,cs),
(438,220,o),
(433,164,o),
(433,107,cs),
(430,85,o),
(430,59,o),
(418,37,cs),
(404,16,o),
(378,11,o),
(354,-1,c),
(358,-8,o),
(366,-20,o),
(378,-16,cs),
(462,-11,o),
(550,-8,o),
(632,13,c),
(649,13,o),
(644,32,o),
(646,44,c),
(574,42,l),
(558,42,o),
(546,54,o),
(546,73,cs),
(543,320,ls),
(546,349,o),
(538,385,o),
(517,409,cs),
(495,433,o),
(459,440,o),
(428,440,cs),
(354,431,o),
(291,392,o),
(222,373,c),
(219,433,o),
(224,496,o),
(226,558,cs),
(226,620,o),
(258,673,o),
(274,733,c),
(258,726,o),
(241,719,o),
(229,707,cs),
(181,666,o),
(135,625,o),
(85,589,c),
(75,584,o),
(68,572,o),
(61,563,c),
(109,541,l),
(116,505,o),
(111,467,o),
(111,431,cs),
(109,308,o),
(114,186,o),
(104,66,cs),
(99,20,o),
(49,11,o),
(15,4,c),
(13,-16,l)
);
}
);
width = 661;
}
);
unicode = 104;
},
{
glyphname = i;
kernLeft = i;
lastChange = "2023-02-03 06:05:04 +0000";
layers = (
{
layerId = m01;
shapes = (
{
closed = 1;
nodes = (
(51,-18,o),
(89,-13,o),
(128,-11,cs),
(192,-6,o),
(260,-1,o),
(324,18,c),
(322,44,l),
(291,40,o),
(257,30,o),
(226,37,cs),
(212,37,o),
(212,54,o),
(212,66,cs),
(214,193,o),
(212,323,o),
(216,452,c),
(176,443,o),
(147,412,o),
(113,388,c),
(94,373,o),
(70,361,o),
(56,342,c),
(70,325,o),
(99,318,o),
(99,292,cs),
(104,224,o),
(101,160,o),
(99,92,cs),
(96,66,o),
(94,32,o),
(65,20,cs),
(48,8,o),
(12,11,o),
(12,-18,c)
);
},
{
closed = 1;
nodes = (
(70,580,o),
(125,553,o),
(156,577,c),
(180,596,o),
(200,623,o),
(209,652,c),
(214,685,o),
(173,714,o),
(142,697,cs),
(111,683,o),
(82,656,o),
(75,620,cs)
);
}
);
width = 339;
}
);
unicode = 105;
},
{
glyphname = n;
kernLeft = n;
lastChange = "2023-02-03 06:05:10 +0000";
layers = (
{
layerId = m01;
shapes = (
{
closed = 1;
nodes = (
(49,-16,o),
(85,-11,o),
(118,-9,c),
(176,-2,o),
(236,1,o),
(291,20,c),
(289,46,l),
(265,46,o),
(238,39,o),
(214,44,c),
(205,58,o),
(207,75,o),
(207,90,cs),
(209,166,o),
(205,238,o),
(212,317,c),
(231,334,o),
(257,339,o),
(281,344,cs),
(322,353,o),
(373,351,o),
(401,320,cs),
(423,293,o),
(428,260,o),
(433,228,c),
(437,179,o),
(435,130,o),
(428,82,cs),
(425,61,o),
(421,32,o),
(397,22,c),
(380,13,o),
(351,13,o),
(351,-14,c),
(385,-18,o),
(416,-14,o),
(449,-11,cs),
(517,-4,o),
(584,1,o),
(649,20,c),
(649,51,l),
(622,49,o),
(596,42,o),
(572,42,c),
(557,42,o),
(543,54,o),
(545,68,cs),
(545,151,o),
(548,233,o),
(545,320,cs),
(543,356,o),
(533,392,o),
(505,416,cs),
(471,442,o),
(423,442,o),
(385,428,cs),
(325,413,o),
(272,387,o),
(214,365,c),
(214,440,l),
(202,437,o),
(188,437,o),
(178,430,cs),
(142,401,o),
(104,377,o),
(68,351,cs),
(58,344,o),
(53,334,o),
(49,324,c),
(63,320,o),
(77,312,o),
(94,305,c),
(99,231,o),
(97,161,o),
(92,90,cs),
(89,66,o),
(89,34,o),
(65,25,cs),
(46,13,o),
(15,15,o),
(13,-14,c)
);
}
);
width = 673;
}
);
unicode = 110;
},
{
glyphname = o;
lastChange = "2023-02-03 06:05:13 +0000";
layers = (
{
layerId = m01;
shapes = (
{
closed = 1;
nodes = (
(221,39,o),
(317,8,o),
(375,56,cs),
(413,95,o),
(423,152,o),
(420,205,cs),
(418,263,o),
(392,323,o),
(344,356,cs),
(317,371,o),
(286,383,o),
(257,371,cs),
(233,363,o),
(209,349,o),
(197,327,cs),
(152,263,o),
(154,171,o),
(190,104,cs)
);
},
{
closed = 1;
nodes = (
(437,450,o),
(545,349,o),
(543,239,c),
(545,188,o),
(528,138,o),
(492,99,c),
(430,27,o),
(339,-28,o),
(240,-30,c),
(183,-33,o),
(120,-9,o),
(84,39,c),
(36,99,o),
(27,186,o),
(56,255,c),
(75,303,o),
(116,335,o),
(154,361,c),
(207,397,o),
(267,421,o),
(329,433,c)
);
}
);
width = 582;
}
);
unicode = 111;
},
{
glyphname = p;
kernLeft = p;
lastChange = "2023-02-03 06:05:17 +0000";
layers = (
{
layerId = m01;
shapes = (
{
closed = 1;
nodes = (
(224,42,o),
(239,51,o),
(256,56,c),
(275,59,o),
(296,54,o),
(318,56,cs),
(349,61,o),
(373,85,o),
(392,109,cs),
(428,162,o),
(433,239,o),
(402,294,cs),
(388,320,o),
(364,342,o),
(335,349,cs),
(292,359,o),
(248,344,o),
(208,327,c),
(208,229,o),
(205,133,o),
(208,35,c)
);
},
{
closed = 1;
nodes = (
(167,435,o),
(186,455,o),
(215,462,c),
(217,433,o),
(212,402,o),
(212,371,c),
(270,390,o),
(320,423,o),
(380,428,c),
(462,428,o),
(534,366,o),
(546,287,c),
(553,243,o),
(553,198,o),
(532,159,c),
(515,123,o),
(484,95,o),
(450,73,c),
(407,44,o),
(356,32,o),
(311,8,c),
(280,-11,o),
(241,-11,o),
(205,1,c),
(208,-59,o),
(205,-119,o),
(208,-181,c),
(208,-196,o),
(210,-215,o),
(227,-215,c),
(265,-222,o),
(304,-220,o),
(342,-213,c),
(380,-205,o),
(414,-189,o),
(452,-179,c),
(450,-191,o),
(460,-205,o),
(448,-213,c),
(383,-251,o),
(308,-265,o),
(236,-275,c),
(162,-285,o),
(90,-294,o),
(16,-299,c),
(18,-273,o),
(44,-270,o),
(61,-256,c),
(80,-246,o),
(83,-222,o),
(85,-203,c),
(90,-131,o),
(90,-59,o),
(92,13,c),
(92,107,o),
(100,200,o),
(90,294,c),
(85,323,o),
(49,330,o),
(25,337,c),
(32,347,o),
(37,356,o),
(47,363,c),
(80,380,o),
(114,397,o),
(145,419,c)
);
}
);
width = 576;
}
);
unicode = 112;
},
{
glyphname = s;
lastChange = "2023-02-03 06:05:21 +0000";
layers = (
{
layerId = m01;
shapes = (
{
closed = 1;
nodes = (
(102,-30,o),
(162,-33,o),
(217,-16,cs),
(274,1,o),
(334,30,o),
(361,87,cs),
(380,131,o),
(368,186,o),
(332,215,cs),
(289,251,o),
(231,253,o),
(183,277,c),
(171,284,o),
(159,296,o),
(159,311,c),
(145,363,o),
(219,409,o),
(260,375,c),
(282,363,o),
(289,337,o),
(298,315,cs),
(303,301,o),
(320,306,o),
(330,303,c),
(334,342,o),
(344,380,o),
(339,419,c),
(310,433,o),
(277,435,o),
(246,433,c),
(186,416,o),
(126,383,o),
(87,332,cs),
(58,291,o),
(51,224,o),
(94,188,c),
(138,152,o),
(200,150,o),
(248,126,cs),
(282,109,o),
(277,56,o),
(246,42,cs),
(205,23,o),
(157,37,o),
(123,61,cs),
(104,73,o),
(94,95,o),
(78,109,c),
(51,111,l),
(49,71,o),
(44,27,o),
(46,-13,c)
);
}
);
width = 411;
}
);
unicode = 115;
},
{
glyphname = v;
kernLeft = v;
kernRight = v;
lastChange = "2023-02-03 06:05:26 +0000";
layers = (
{
layerId = m01;
shapes = (
{
closed = 1;
nodes = (
(21,367,l),
(60,362,o),
(86,331,o),
(103,300,c),
(163,197,o),
(213,89,o),
(252,-24,cs),
(256,-38,o),
(276,-31,o),
(285,-34,c),
(307,7,o),
(324,50,o),
(343,94,cs),
(376,154,o),
(408,216,o),
(446,271,cs),
(484,324,o),
(516,386,o),
(580,413,c),
(578,437,l),
(504,427,o),
(424,430,o),
(352,408,c),
(340,406,o),
(321,391,o),
(338,382,cs),
(362,377,o),
(391,384,o),
(412,370,cs),
(427,360,o),
(422,343,o),
(415,331,cs),
(386,264,o),
(350,199,o),
(312,137,c),
(295,161,o),
(280,192,o),
(268,218,c),
(244,274,o),
(218,329,o),
(196,386,c),
(218,401,o),
(242,410,o),
(268,420,c),
(266,425,o),
(266,434,o),
(264,439,c),
(182,432,o),
(96,432,o),
(21,389,c)
);
}
);
width = 594;
}
);
unicode = 118;
},
{
glyphname = y;
kernLeft = y;
kernRight = y;
lastChange = "2023-02-03 06:14:45 +0000";
layers = (
{
layerId = m01;
shapes = (
{
closed = 1;
nodes = (
(13,-282,o),
(71,-311,o),
(102,-289,cs),
(205,-210,o),
(299,-119,o),
(371,-9,cs),
(407,54,o),
(433,119,o),
(469,181,cs),
(508,246,o),
(539,313,o),
(592,368,cs),
(608,390,o),
(647,390,o),
(647,421,c),
(580,421,o),
(512,416,o),
(448,399,c),
(431,395,o),
(419,385,o),
(416,368,c),
(440,361,o),
(469,361,o),
(493,356,c),
(462,287,o),
(433,215,o),
(397,147,c),
(373,174,o),
(364,210,o),
(349,241,cs),
(335,287,o),
(313,330,o),
(301,375,c),
(325,387,o),
(352,397,o),
(376,407,c),
(368,416,o),
(361,428,o),
(347,423,c),
(272,419,o),
(196,419,o),
(128,383,c),
(119,378,o),
(112,366,o),
(114,354,c),
(133,351,o),
(155,351,o),
(169,337,cs),
(188,315,o),
(200,294,o),
(212,267,cs),
(323,37,l),
(272,-45,o),
(205,-112,o),
(128,-169,cs),
(95,-196,o),
(54,-215,o),
(18,-241,c)
);
}
);
width = 662;
}
);
unicode = 121;
},
